# Blender 4.1.0
# www.blender.org
mtllib ds-top.mtl
o TOP
v -2.937833 -0.262554 2.669115
v -2.424000 -0.262554 2.669115
v -2.937833 -0.262554 2.353187
v -2.937833 -0.262554 1.925335
v -1.996148 -0.262554 2.669115
v -1.568295 -0.262554 2.669115
v -2.937833 -0.262554 1.497483
v -2.937833 -0.262554 1.069631
v -2.937833 -0.262554 0.641778
v -2.937833 -0.262554 0.213926
v -2.937833 0.199436 2.669115
v -2.424000 0.199436 2.669115
v -2.937833 0.199436 2.353187
v -2.937833 0.199436 1.925335
v -1.996148 0.199436 2.669115
v -1.568295 0.199436 2.669115
v -2.937833 0.199436 1.497483
v -2.937833 0.199436 1.069631
v -2.937833 0.199436 0.641778
v -2.937833 0.199436 0.213926
v -2.937833 -0.262554 -0.213926
v -2.937833 -0.262554 -0.641778
v -2.937833 -0.262554 -1.069631
v -2.937833 -0.262554 -1.497483
v -2.937833 -0.262554 -1.925335
v -2.937833 -0.262554 -2.353187
v -2.937833 -0.262554 -2.669108
v -2.424000 -0.262554 -2.669108
v -1.996148 -0.262554 -2.669108
v -1.568295 -0.262554 -2.669108
v -2.937833 0.199436 -0.213926
v -2.937833 0.199436 -0.641778
v -2.937833 0.199436 -1.069631
v -2.937833 0.199436 -1.497483
v -2.937833 0.199436 -1.925335
v -2.937833 0.199436 -2.353187
v -2.937833 0.199436 -2.669108
v -2.424000 0.199436 -2.669108
v -1.996148 0.199436 -2.669108
v -1.568295 0.199436 -2.669108
v -1.140443 -0.262554 2.669115
v -0.712591 -0.262554 2.669115
v -0.281709 -0.262554 2.669115
v -0.281709 -0.262554 2.353187
v -0.281709 -0.262554 1.906513
v 0.229087 -0.262554 1.906513
v 0.229087 -0.262554 1.497483
v 0.229087 -0.262554 1.069631
v 0.229087 -0.262554 0.641778
v 0.229087 -0.262554 0.213926
v -1.140443 0.199436 2.669115
v -0.712591 0.199436 2.669115
v -0.281709 0.199436 2.669115
v -0.281709 0.199436 2.353187
v -0.281709 0.199436 1.906513
v 0.229087 0.199436 1.906513
v 0.229087 0.199436 1.497483
v 0.229087 0.199436 1.069631
v 0.229087 0.199436 0.641778
v 0.229087 0.199436 0.213926
v 0.229087 -0.262554 -0.213926
v 0.229087 -0.262554 -0.641778
v 0.229087 -0.262554 -1.069631
v 0.229087 -0.262554 -1.497483
v -1.140443 -0.262554 -2.669108
v -0.712591 -0.262554 -2.669108
v -0.281709 -0.262554 -1.906507
v -0.281709 -0.262554 -2.353187
v 0.229087 -0.262554 -1.906507
v -0.281709 -0.262554 -2.669108
v 0.229087 0.199436 -0.213926
v 0.229087 0.199436 -0.641778
v 0.229087 0.199436 -1.069631
v 0.229087 0.199436 -1.497483
v -1.140443 0.199436 -2.669108
v -0.712591 0.199436 -2.669108
v -0.281709 0.199436 -1.906507
v -0.281709 0.199436 -2.353187
v 0.229087 0.199436 -1.906507
v -0.281709 0.199436 -2.669108
vn 1.0000 -0.0000 -0.0000
vn -0.0000 -1.0000 -0.0000
vn -0.0000 -0.0000 -1.0000
vn -0.0000 -0.0000 1.0000
vn -1.0000 -0.0000 -0.0000
vn -0.0000 1.0000 -0.0000
vt 0.826749 0.816265
vt 0.867584 0.816265
vt 0.867584 0.860359
vt 0.588932 0.756860
vt 0.534800 0.690131
vt 0.534800 0.667941
vt 0.534551 0.902701
vt 0.516267 0.902701
vt 0.516267 0.885768
vt 0.516723 0.877567
vt 0.534094 0.877567
vt 0.534094 0.893654
vt 0.895172 0.971367
vt 0.865367 0.939183
vt 0.895172 0.939183
vt 0.534551 0.970151
vt 0.516267 0.949935
vt 0.534551 0.949935
vt 0.534551 0.932257
vt 0.516267 0.932257
vt 0.534551 0.919754
vt 0.534094 0.832691
vt 0.516723 0.849486
vt 0.516723 0.832691
vt 0.839383 0.822907
vt 0.883417 0.897198
vt 0.883417 0.921903
vt 0.581733 0.860359
vt 0.542694 0.860359
vt 0.542694 0.816265
vt 0.581733 0.816265
vt 0.622569 0.860359
vt 0.622569 0.816265
vt 0.663405 0.860359
vt 0.663405 0.816265
vt 0.704241 0.860359
vt 0.704241 0.816265
vt 0.745077 0.860359
vt 0.745077 0.816265
vt 0.785913 0.860359
vt 0.785913 0.816265
vt 0.826749 0.860359
vt 0.906623 0.816265
vt 0.906623 0.860359
vt 0.891303 0.619101
vt 0.913729 0.619101
vt 0.913729 0.645751
vt 0.913729 0.667941
vt 0.860933 0.619101
vt 0.913729 0.690131
vt 0.830562 0.619101
vt 0.913729 0.712322
vt 0.800191 0.619101
vt 0.913729 0.734512
vt 0.913729 0.756860
vt 0.891303 0.756860
vt 0.769821 0.619101
vt 0.859596 0.756860
vt 0.859596 0.783352
vt 0.830562 0.783352
vt 0.800191 0.783352
vt 0.739450 0.619101
vt 0.769821 0.783352
vt 0.739450 0.783352
vt 0.709079 0.619101
vt 0.678708 0.619101
vt 0.709079 0.783352
vt 0.678708 0.783352
vt 0.648338 0.619101
vt 0.617967 0.619101
vt 0.648338 0.783352
vt 0.617967 0.783352
vt 0.588932 0.783352
vt 0.587596 0.619101
vt 0.534800 0.645751
vt 0.534800 0.619101
vt 0.557226 0.619101
vt 0.557226 0.756860
vt 0.534800 0.756860
vt 0.534800 0.734512
vt 0.534800 0.712322
vt 0.516267 0.814632
vt 0.534551 0.814632
vt 0.534551 0.834968
vt 0.534551 0.851901
vt 0.516267 0.834968
vt 0.534551 0.868835
vt 0.516267 0.851901
vt 0.534551 0.885768
vt 0.516267 0.868835
vt 0.516267 0.919754
vt 0.534094 0.961238
vt 0.516723 0.961238
vt 0.516723 0.941917
vt 0.516723 0.925830
vt 0.534094 0.941917
vt 0.516723 0.909742
vt 0.534094 0.925830
vt 0.516723 0.893654
vt 0.534094 0.909742
vt 0.516723 0.861365
vt 0.534094 0.861365
vt 0.567310 0.971367
vt 0.545302 0.971367
vt 0.545302 0.939183
vt 0.567310 0.939183
vt 0.597116 0.971367
vt 0.597116 0.939183
vt 0.626922 0.971367
vt 0.626922 0.939183
vt 0.656727 0.971367
vt 0.656727 0.939183
vt 0.686533 0.971367
vt 0.686533 0.939183
vt 0.716339 0.971367
vt 0.716339 0.939183
vt 0.746144 0.971367
vt 0.746144 0.939183
vt 0.775950 0.971367
vt 0.775950 0.939183
vt 0.805756 0.971367
vt 0.805756 0.939183
vt 0.835561 0.971367
vt 0.835561 0.939183
vt 0.865367 0.971367
vt 0.917181 0.939183
vt 0.917181 0.971367
vt 0.516267 0.970151
vt 0.534094 0.849486
vt 0.516723 0.813484
vt 0.534094 0.813484
vt 0.593415 0.976279
vt 0.575173 0.976279
vt 0.575173 0.946609
vt 0.575173 0.921903
vt 0.618121 0.976279
vt 0.575173 0.897198
vt 0.642826 0.976279
vt 0.575173 0.872493
vt 0.667532 0.976279
vt 0.575173 0.847787
vt 0.575173 0.822907
vt 0.593415 0.822907
vt 0.692237 0.976279
vt 0.619208 0.822907
vt 0.619208 0.793412
vt 0.642826 0.793412
vt 0.667532 0.793412
vt 0.716943 0.976279
vt 0.692237 0.793412
vt 0.716943 0.793412
vt 0.741648 0.976279
vt 0.766353 0.976279
vt 0.741648 0.793412
vt 0.766353 0.793412
vt 0.791059 0.976279
vt 0.815764 0.976279
vt 0.791059 0.793412
vt 0.815764 0.793412
vt 0.839383 0.793412
vt 0.840470 0.976279
vt 0.883417 0.946609
vt 0.883417 0.976279
vt 0.865175 0.976279
vt 0.865175 0.822907
vt 0.883417 0.822907
vt 0.883417 0.847787
vt 0.883417 0.872493
s 0
usemtl dstex
f 63/1/1 64/2/1 74/3/1
f 45/4/2 6/5/2 5/6/2
f 76/7/3 66/8/3 65/9/3
f 42/10/4 52/11/4 51/12/4
f 13/13/5 4/14/5 3/15/5
f 79/16/3 67/17/3 77/18/3
f 78/19/1 68/20/1 80/21/1
f 55/22/1 44/23/1 45/24/1
f 77/25/6 40/26/6 39/27/6
f 57/28/1 56/29/1 46/30/1
f 57/28/1 46/30/1 47/31/1
f 58/32/1 57/28/1 47/31/1
f 58/32/1 47/31/1 48/33/1
f 59/34/1 58/32/1 48/33/1
f 59/34/1 48/33/1 49/35/1
f 60/36/1 59/34/1 49/35/1
f 60/36/1 49/35/1 50/37/1
f 71/38/1 60/36/1 50/37/1
f 71/38/1 50/37/1 61/39/1
f 72/40/1 71/38/1 61/39/1
f 72/40/1 61/39/1 62/41/1
f 73/42/1 72/40/1 62/41/1
f 73/42/1 62/41/1 63/1/1
f 69/43/1 79/44/1 74/3/1
f 74/3/1 73/42/1 63/1/1
f 64/2/1 69/43/1 74/3/1
f 26/45/2 27/46/2 28/47/2
f 26/45/2 28/47/2 29/48/2
f 25/49/2 26/45/2 29/48/2
f 25/49/2 29/48/2 30/50/2
f 24/51/2 25/49/2 30/50/2
f 24/51/2 30/50/2 65/52/2
f 23/53/2 24/51/2 65/52/2
f 66/54/2 70/55/2 68/56/2
f 23/53/2 65/52/2 66/54/2
f 22/57/2 23/53/2 66/54/2
f 66/54/2 68/56/2 67/58/2
f 67/58/2 69/59/2 64/60/2
f 67/58/2 64/60/2 63/61/2
f 22/57/2 66/54/2 67/58/2
f 21/62/2 22/57/2 67/58/2
f 67/58/2 63/61/2 62/63/2
f 67/58/2 62/63/2 61/64/2
f 10/65/2 21/62/2 67/58/2
f 9/66/2 10/65/2 67/58/2
f 67/58/2 61/64/2 50/67/2
f 67/58/2 50/67/2 49/68/2
f 8/69/2 9/66/2 67/58/2
f 7/70/2 8/69/2 67/58/2
f 67/58/2 49/68/2 48/71/2
f 47/72/2 46/73/2 45/4/2
f 67/58/2 48/71/2 47/72/2
f 4/74/2 7/70/2 67/58/2
f 2/75/2 1/76/2 3/77/2
f 3/77/2 4/74/2 67/58/2
f 67/58/2 47/72/2 45/4/2
f 44/78/2 43/79/2 42/80/2
f 3/77/2 67/58/2 45/4/2
f 45/4/2 44/78/2 42/80/2
f 45/4/2 42/80/2 41/81/2
f 2/75/2 3/77/2 45/4/2
f 5/6/2 2/75/2 45/4/2
f 45/4/2 41/81/2 6/5/2
f 27/82/3 37/83/3 38/84/3
f 27/82/3 38/84/3 39/85/3
f 28/86/3 27/82/3 39/85/3
f 28/86/3 39/85/3 40/87/3
f 29/88/3 28/86/3 40/87/3
f 29/88/3 40/87/3 75/89/3
f 30/90/3 29/88/3 75/89/3
f 76/7/3 80/21/3 70/91/3
f 30/90/3 75/89/3 76/7/3
f 65/9/3 30/90/3 76/7/3
f 76/7/3 70/91/3 66/8/3
f 11/92/4 1/93/4 2/94/4
f 11/92/4 2/94/4 5/95/4
f 12/96/4 11/92/4 5/95/4
f 12/96/4 5/95/4 6/97/4
f 15/98/4 12/96/4 6/97/4
f 15/98/4 6/97/4 41/99/4
f 16/100/4 15/98/4 41/99/4
f 42/10/4 43/101/4 53/102/4
f 16/100/4 41/99/4 42/10/4
f 51/12/4 16/100/4 42/10/4
f 42/10/4 53/102/4 52/11/4
f 36/103/5 37/104/5 27/105/5
f 36/103/5 27/105/5 26/106/5
f 35/107/5 36/103/5 26/106/5
f 35/107/5 26/106/5 25/108/5
f 34/109/5 35/107/5 25/108/5
f 34/109/5 25/108/5 24/110/5
f 33/111/5 34/109/5 24/110/5
f 33/111/5 24/110/5 23/112/5
f 32/113/5 33/111/5 23/112/5
f 32/113/5 23/112/5 22/114/5
f 31/115/5 32/113/5 22/114/5
f 31/115/5 22/114/5 21/116/5
f 20/117/5 31/115/5 21/116/5
f 20/117/5 21/116/5 10/118/5
f 19/119/5 20/117/5 10/118/5
f 19/119/5 10/118/5 9/120/5
f 18/121/5 19/119/5 9/120/5
f 18/121/5 9/120/5 8/122/5
f 17/123/5 18/121/5 8/122/5
f 17/123/5 8/122/5 7/124/5
f 14/125/5 17/123/5 7/124/5
f 14/125/5 7/124/5 4/14/5
f 1/126/5 11/127/5 13/13/5
f 13/13/5 14/125/5 4/14/5
f 3/15/5 1/126/5 13/13/5
f 79/16/3 69/128/3 67/17/3
f 78/19/1 77/18/1 67/17/1
f 68/20/1 70/91/1 80/21/1
f 78/19/1 67/17/1 68/20/1
f 54/129/1 53/102/1 43/101/1
f 54/129/1 43/101/1 44/23/1
f 46/130/4 56/131/4 55/22/4
f 55/22/1 54/129/1 44/23/1
f 45/24/4 46/130/4 55/22/4
f 13/132/6 11/133/6 12/134/6
f 13/132/6 12/134/6 15/135/6
f 14/136/6 13/132/6 15/135/6
f 14/136/6 15/135/6 16/137/6
f 17/138/6 14/136/6 16/137/6
f 17/138/6 16/137/6 51/139/6
f 18/140/6 17/138/6 51/139/6
f 52/141/6 53/142/6 54/143/6
f 18/140/6 51/139/6 52/141/6
f 19/144/6 18/140/6 52/141/6
f 52/141/6 54/143/6 55/145/6
f 55/145/6 56/146/6 57/147/6
f 55/145/6 57/147/6 58/148/6
f 19/144/6 52/141/6 55/145/6
f 20/149/6 19/144/6 55/145/6
f 55/145/6 58/148/6 59/150/6
f 55/145/6 59/150/6 60/151/6
f 31/152/6 20/149/6 55/145/6
f 32/153/6 31/152/6 55/145/6
f 55/145/6 60/151/6 71/154/6
f 55/145/6 71/154/6 72/155/6
f 33/156/6 32/153/6 55/145/6
f 34/157/6 33/156/6 55/145/6
f 55/145/6 72/155/6 73/158/6
f 74/159/6 79/160/6 77/25/6
f 55/145/6 73/158/6 74/159/6
f 35/161/6 34/157/6 55/145/6
f 38/162/6 37/163/6 36/164/6
f 36/164/6 35/161/6 55/145/6
f 55/145/6 74/159/6 77/25/6
f 78/165/6 80/166/6 76/167/6
f 36/164/6 55/145/6 77/25/6
f 77/25/6 78/165/6 76/167/6
f 77/25/6 76/167/6 75/168/6
f 38/162/6 36/164/6 77/25/6
f 39/27/6 38/162/6 77/25/6
f 77/25/6 75/168/6 40/26/6
