# Blender 4.1.0
# www.blender.org
mtllib biertje.mtl
o can-open_can-01_0
v 1.328286 0.336400 -0.863334
v 1.328286 5.441298 -0.863334
v 1.549160 5.441298 0.334524
v 1.549160 0.336400 0.334524
v 0.858328 5.441298 1.337719
v 0.858328 0.336400 1.337719
v -0.339529 5.441298 1.558593
v -0.339529 0.336400 1.558593
v -1.342724 5.441298 0.867761
v -1.342724 0.336400 0.867761
v -1.563598 5.441298 -0.330097
v -1.563598 0.336400 -0.330097
v -0.872766 5.441298 -1.333292
v -0.872766 0.336400 -1.333292
v 0.325092 5.441298 -1.554166
v 0.325092 0.336400 -1.554166
v 1.328286 5.441298 -0.863334
v 1.328286 0.336400 -0.863334
v 0.234842 -0.005333 -1.131481
v 0.965587 -0.005333 -0.628267
v 0.746670 0.159477 -0.486385
v 0.180369 0.159477 -0.876358
v 1.266389 -0.005333 0.274148
v 1.085644 -0.005333 -0.706076
v 1.328286 0.336400 -0.863334
v 1.549160 0.336400 0.334524
v 1.067585 6.009454 -0.694372
v 1.245343 6.009454 0.269654
v 0.701071 -0.005333 1.095077
v 0.858328 0.336400 1.337719
v 0.689367 6.009454 1.077018
v -0.279153 -0.005333 1.275821
v -0.339529 0.336400 1.558593
v -0.274660 6.009454 1.254775
v -1.100082 -0.005333 0.710504
v -1.342724 0.336400 0.867761
v -1.082023 6.009454 0.698799
v -1.280826 -0.005333 -0.269721
v -1.563598 0.336400 -0.330097
v -1.259780 6.009454 -0.265227
v -0.715509 -0.005333 -1.090650
v -0.872766 0.336400 -1.333292
v -0.703804 6.009454 -1.072590
v 0.264716 -0.005333 -1.271394
v 0.325092 0.336400 -1.554166
v 0.260222 6.009454 -1.250348
v 1.067585 6.009454 -0.694372
v 1.126476 -0.005333 0.244274
v 1.085644 -0.005333 -0.706076
v 1.266389 -0.005333 0.274148
v 0.623261 -0.005333 0.975020
v 0.701071 -0.005333 1.095077
v -0.249280 -0.005333 1.135908
v -0.279153 -0.005333 1.275821
v -0.980025 -0.005333 0.632694
v -1.100082 -0.005333 0.710504
v -1.140913 -0.005333 -0.239847
v -1.280826 -0.005333 -0.269721
v -0.637699 -0.005333 -0.970593
v -0.715509 -0.005333 -1.090650
v 0.264716 -0.005333 -1.271394
v -0.495817 0.159477 -0.751675
v -0.885790 0.159477 -0.185375
v -0.761107 0.159477 0.490812
v -0.194807 0.159477 0.880785
v 0.481380 0.159477 0.756102
v 0.871352 0.159477 0.189802
v -1.259780 6.009454 -0.265227
v -1.082023 6.009454 0.698799
v -1.145130 6.009454 0.739699
v -1.333324 6.009454 -0.280930
v 1.005123 6.137432 -0.653890
v 0.244680 6.137432 -1.177556
v 0.244680 6.015128 -1.177556
v 1.005123 6.015128 -0.653890
v 1.245343 6.009454 0.269654
v 1.067585 6.009454 -0.694372
v 1.130692 6.009454 -0.735272
v 1.318887 6.009454 0.285357
v -0.663323 6.137432 -1.010129
v 0.244680 6.137432 -1.177556
v 0.275925 6.137432 -1.323892
v -0.744704 6.137432 -1.135698
v 0.260222 6.009454 -1.250348
v 0.275925 6.009454 -1.323892
v -1.186988 6.137432 -0.249685
v -1.333324 6.137432 -0.280930
v -0.274660 6.009454 1.254775
v -0.290362 6.009454 1.328320
v -1.019561 6.137432 0.658318
v -1.145130 6.137432 0.739699
v -0.703804 6.009454 -1.072590
v -0.744704 6.009454 -1.135698
v -0.290362 6.009454 1.328320
v 0.730267 6.009454 1.140125
v 0.730267 6.137432 1.140125
v -0.290362 6.137432 1.328320
v 1.318887 6.009454 0.285357
v 1.318887 6.137432 0.285357
v 1.130692 6.009454 -0.735272
v 1.130692 6.137432 -0.735272
v 0.275925 6.009454 -1.323892
v 0.275925 6.137432 -1.323892
v -0.744704 6.009454 -1.135698
v -0.744704 6.137432 -1.135698
v -1.333324 6.009454 -0.280930
v -1.333324 6.137432 -0.280930
v -1.145130 6.009454 0.739699
v -1.145130 6.137432 0.739699
v 1.005123 6.137432 -0.653890
v 1.130692 6.137432 -0.735272
v 1.172551 6.137432 0.254112
v 1.318887 6.137432 0.285357
v 0.689367 6.009454 1.077018
v 0.730267 6.009454 1.140125
v 0.648885 6.137432 1.014556
v 0.730267 6.137432 1.140125
v -0.259117 6.137432 1.181983
v -0.290362 6.137432 1.328320
v -0.663323 6.137432 -1.010129
v -1.186988 6.137432 -0.249685
v -1.186988 6.015128 -0.249685
v -0.663323 6.015128 -1.010129
v -1.019561 6.137432 0.658318
v -0.259117 6.137432 1.181983
v -0.259117 6.015128 1.181983
v -1.019561 6.015128 0.658318
v 0.648885 6.137432 1.014556
v 1.172551 6.137432 0.254112
v 1.172551 6.015128 0.254112
v 0.648885 6.015128 1.014556
v 0.011526 6.015128 -0.009935
v 0.159458 6.015128 0.467425
v 1.172551 6.015128 0.254112
v 1.005123 6.015128 -0.653890
v -0.031370 6.015128 0.774383
v 0.648885 6.015128 1.014556
v -0.389497 6.015128 0.823206
v -0.259117 6.015128 1.181983
v -0.764814 6.015128 0.493215
v -1.019561 6.015128 0.658318
v -0.912745 6.015128 0.015854
v -1.186988 6.015128 -0.249685
v -0.721917 6.015128 -0.291104
v -0.663323 6.015128 -1.010129
v -0.363790 6.015128 -0.339926
v 0.244680 6.015128 -1.177556
v -0.195035 6.016431 0.308878
v 0.186969 6.076476 0.346139
v 0.851520 6.234818 -0.084559
v 0.879021 6.272347 -0.387223
v -0.241845 6.076476 -0.315504
v -0.363848 6.016431 0.048407
v 0.710208 6.272347 -0.647694
v 0.422706 6.234818 -0.746202
v -0.241845 6.076476 -0.315504
v 0.422706 6.234818 -0.746202
v 0.434200 6.166315 -0.753652
v -0.230351 6.007971 -0.322953
v 0.710208 6.272347 -0.647694
v 0.879021 6.272347 -0.387223
v 0.890515 6.203843 -0.394673
v 0.721703 6.203843 -0.655143
v -0.195035 6.016431 0.308878
v -0.363848 6.016431 0.048407
v -0.352353 5.947926 0.040957
v -0.183541 5.947926 0.301428
v 0.422706 6.234818 -0.746202
v 0.721703 6.203843 -0.655143
v 0.434200 6.166315 -0.753652
v 0.186969 6.076476 0.346139
v -0.195035 6.016431 0.308878
v -0.183541 5.947926 0.301428
v 0.198463 6.007971 0.338690
v 0.851520 6.234818 -0.084559
v 0.863014 6.166315 -0.092009
v 0.890515 6.203843 -0.394673
v -0.363848 6.016431 0.048407
v -0.230351 6.007971 -0.322953
v -0.352353 5.947926 0.040957
v 0.851520 6.234818 -0.084559
v 0.198463 6.007971 0.338690
v 0.863014 6.166315 -0.092009
vn 0.8437 -0.4738 -0.2523
vn 0.8802 0.2396 -0.4097
vn 0.9834 -0.0000 -0.1813
vn 0.7887 -0.2737 -0.5505
vn 0.9797 -0.1991 0.0218
vn 0.8089 -0.2797 0.5171
vn 0.8236 -0.0000 0.5672
vn 0.9156 -0.1745 0.3622
vn 0.6773 -0.1991 0.7082
vn 0.2063 -0.2797 0.9377
vn 0.1813 -0.0000 0.9834
vn 0.3913 -0.1745 0.9035
vn -0.0218 -0.1991 0.9797
vn -0.5171 -0.2797 0.8089
vn -0.5672 -0.0000 0.8236
vn -0.3622 -0.1745 0.9156
vn -0.7082 -0.1991 0.6773
vn -0.9377 -0.2797 0.2063
vn -0.9834 -0.0000 0.1813
vn -0.9035 -0.1745 0.3913
vn -0.9797 -0.1991 -0.0218
vn -0.8089 -0.2797 -0.5171
vn -0.8236 -0.0000 -0.5672
vn -0.9156 -0.1745 -0.3622
vn -0.6773 -0.1991 -0.7082
vn -0.2063 -0.2797 -0.9377
vn -0.1813 -0.0000 -0.9834
vn -0.3913 -0.1745 -0.9035
vn 0.0218 -0.1991 -0.9797
vn 0.5171 -0.2797 -0.8089
vn 0.5672 -0.0000 -0.8236
vn 0.7548 0.2088 -0.6219
vn 0.3622 -0.1745 -0.9156
vn 0.5688 0.3377 -0.7500
vn 0.7952 -0.3195 -0.5154
vn -0.3201 -0.8255 0.4649
vn 0.7748 -0.6159 -0.1429
vn 0.8413 -0.3894 -0.3749
vn 0.7109 -0.5344 -0.4572
vn 0.9004 -0.4243 0.0961
vn 0.8624 0.2469 -0.4419
vn 0.8778 0.4509 -0.1619
vn 0.7129 0.5331 -0.4557
vn 0.8754 0.2272 -0.4268
vn 0.6489 -0.6159 0.4468
vn 0.8600 -0.3894 0.3298
vn 0.8260 -0.5344 0.1793
vn 0.5687 -0.4243 0.7046
vn 0.7351 0.4509 0.5062
vn 0.1429 -0.6159 0.7748
vn 0.3749 -0.3894 0.8413
vn 0.4572 -0.5344 0.7109
vn -0.0961 -0.4243 0.9004
vn 0.1619 0.4509 0.8778
vn -0.4468 -0.6159 0.6489
vn -0.3298 -0.3894 0.8600
vn -0.1793 -0.5344 0.8260
vn -0.7046 -0.4243 0.5687
vn -0.5062 0.4509 0.7351
vn -0.7748 -0.6159 0.1429
vn -0.8413 -0.3894 0.3749
vn -0.7109 -0.5344 0.4572
vn -0.9004 -0.4243 -0.0961
vn -0.8778 0.4509 0.1619
vn -0.6489 -0.6159 -0.4468
vn -0.8600 -0.3894 -0.3298
vn -0.8260 -0.5344 -0.1793
vn -0.5687 -0.4243 -0.7046
vn -0.7351 0.4509 -0.5062
vn -0.1429 -0.6159 -0.7748
vn -0.3749 -0.3894 -0.8413
vn -0.4572 -0.5344 -0.7109
vn 0.0961 -0.4243 -0.9004
vn -0.1619 0.4509 -0.8778
vn 0.4468 -0.6159 -0.6489
vn 0.3298 -0.3894 -0.8600
vn 0.1793 -0.5344 -0.8260
vn 0.7046 -0.4243 -0.5687
vn 0.5062 0.4509 -0.7351
vn 0.7363 0.4798 -0.4772
vn 0.7073 0.1743 -0.6851
vn 0.7695 0.3424 -0.5392
vn -0.0000 -1.0000 -0.0000
vn 0.4649 -0.8255 0.3201
vn 0.3201 -0.8255 -0.4649
vn -0.4649 -0.8255 -0.3201
vn 0.1024 -0.8255 0.5551
vn 0.5551 -0.8255 -0.1024
vn -0.1024 -0.8255 -0.5551
vn -0.5551 -0.8255 0.1024
vn -0.0000 1.0000 -0.0000
vn -0.1645 0.9806 0.1066
vn -0.6165 -0.3017 -0.7273
vn -0.5439 -0.0000 -0.8392
vn -0.7834 -0.0546 -0.6191
vn -0.7820 -0.0638 -0.6200
vn 0.7071 -0.0693 -0.7037
vn 0.9566 0.1850 -0.2253
vn 0.9601 0.1611 -0.2287
vn 0.5928 0.2089 -0.7778
vn 0.8458 0.4393 -0.3028
vn 0.5963 0.1850 -0.7811
vn -0.8229 -0.1961 0.5333
vn 0.3024 0.1530 -0.9408
vn 0.5963 0.1850 -0.7812
vn 0.5995 0.1607 -0.7841
vn 0.4364 0.4237 -0.7937
vn 0.1611 -0.3394 0.9268
vn -0.0776 -0.1206 0.9897
vn 0.2428 -0.0450 0.9690
vn 0.2465 -0.0638 0.9670
vn 0.9880 -0.0842 -0.1296
vn 0.9823 0.1530 0.1082
vn 0.9524 0.2091 -0.2217
vn 0.9566 0.1850 -0.2252
vn -0.9350 -0.1206 -0.3334
vn -0.7790 -0.0829 -0.6215
vn -0.8658 0.1714 -0.4701
vn 0.5439 -0.0000 0.8392
vn 0.2466 -0.0638 0.9670
vn 0.2482 -0.0729 0.9660
vn 0.3226 0.2316 0.9178
vt 0.997015 0.585688
vt 0.997015 0.997518
vt 0.886463 0.997517
vt 0.886463 0.585688
vt 0.775912 0.997518
vt 0.775912 0.585688
vt 0.665359 0.997518
vt 0.665359 0.585688
vt 0.554807 0.997518
vt 0.554807 0.585688
vt 0.444256 0.997518
vt 0.444256 0.585688
vt 0.333704 0.997518
vt 0.333704 0.585688
vt 0.223152 0.997518
vt 0.223152 0.585688
vt 0.112600 0.997518
vt 0.112600 0.585688
vt 0.069195 0.509864
vt 0.121913 0.561955
vt 0.137049 0.525317
vt 0.105844 0.494579
vt 0.935843 0.590251
vt 0.735005 0.590251
vt 0.735005 0.611533
vt 0.980433 0.611533
vt 0.404029 1.000128
vt 0.688566 1.000128
vt 0.757583 0.969420
vt 0.404029 0.969420
vt 0.534167 0.590251
vt 0.489576 0.611533
vt 0.119492 1.000128
vt 0.050476 0.969420
vt 0.195980 0.561253
vt 0.117457 0.573208
vt 0.200797 0.572353
vt 0.247906 0.508481
vt 0.259170 0.512912
vt 0.247032 0.434317
vt 0.258138 0.429495
vt 0.194313 0.382226
vt 0.198769 0.370973
vt 0.120246 0.382928
vt 0.115429 0.371828
vt 0.068321 0.435699
vt 0.057057 0.431269
vt 0.058089 0.514686
vt 0.104967 0.450819
vt 0.135513 0.419580
vt 0.179177 0.418864
vt 0.210382 0.449601
vt 0.211260 0.493362
vt 0.180714 0.524601
vt 0.065545 0.402267
vt 0.233038 0.471173
vt 0.233464 0.458976
vt 0.074571 0.393844
vt 0.181459 0.367228
vt 0.126758 0.389979
vt 0.129493 0.393463
vt 0.180914 0.371737
vt 0.407235 0.074298
vt 0.241556 0.004641
vt 0.241124 0.016769
vt 0.398301 0.082657
vt 0.042771 0.435361
vt 0.065173 0.386539
vt 0.059151 0.380287
vt 0.035929 0.435220
vt 0.073517 0.068140
vt 0.081805 0.077141
vt 0.063097 0.484979
vt 0.056886 0.491068
vt 0.402832 0.408509
vt 0.394474 0.399426
vt 0.112695 0.506687
vt 0.112595 0.513603
vt 0.002696 0.233414
vt 0.014840 0.233921
vt 0.000043 0.333348
vt 0.088631 0.530891
vt 0.109182 0.530891
vt 0.048028 0.366568
vt 0.058736 0.364788
vt 0.068579 0.366568
vt 0.088631 0.364239
vt 0.109182 0.364239
vt 0.012147 0.549189
vt 0.079653 0.549189
vt 0.079653 0.573851
vt 0.012147 0.573851
vt 0.147158 0.549189
vt 0.147158 0.573851
vt 0.051187 0.374473
vt 0.118692 0.374473
vt 0.118692 0.399135
vt 0.051187 0.399135
vt 0.186197 0.374473
vt 0.186197 0.399135
vt 0.146825 0.363400
vt 0.214330 0.363400
vt 0.214330 0.388061
vt 0.146825 0.388061
vt 0.048028 0.533221
vt 0.068579 0.533221
vt 0.129097 0.498428
vt 0.129139 0.495570
vt 0.149571 0.507664
vt 0.152165 0.505127
vt 0.471917 0.241974
vt 0.459771 0.241614
vt 0.158331 0.528345
vt 0.161192 0.528369
vt 0.162945 0.486445
vt 0.168968 0.492720
vt 0.109174 0.454233
vt 0.124469 0.498502
vt 0.127869 0.495718
vt 0.119890 0.455659
vt 0.179147 0.522433
vt 0.234544 0.500118
vt 0.231870 0.496619
vt 0.179681 0.517822
vt 0.258557 0.446127
vt 0.235454 0.391585
vt 0.232018 0.394375
vt 0.254071 0.445638
vt 0.113776 0.437714
vt 0.140658 0.445810
vt 0.160654 0.390526
vt 0.114298 0.369991
vt 0.148839 0.464473
vt 0.180658 0.437027
vt 0.139808 0.482471
vt 0.160519 0.483271
vt 0.113328 0.489937
vt 0.113179 0.502504
vt 0.086980 0.482014
vt 0.066181 0.482454
vt 0.078260 0.463868
vt 0.046834 0.435902
vt 0.086759 0.445348
vt 0.067654 0.389699
vt 0.098653 0.484281
vt 0.113207 0.502928
vt 0.113207 0.552100
vt 0.098653 0.563754
vt 0.065200 0.502928
vt 0.079754 0.484281
vt 0.079754 0.563754
vt 0.065200 0.552100
vt 0.117493 0.484281
vt 0.117493 0.533454
vt 0.113239 0.533454
vt 0.113239 0.484281
vt 0.048375 0.523932
vt 0.048375 0.540825
vt 0.052177 0.540825
vt 0.052177 0.523932
vt 0.180284 0.529161
vt 0.180284 0.512269
vt 0.176482 0.512269
vt 0.176482 0.529161
vt 0.113239 0.552131
vt 0.113239 0.533486
vt 0.117493 0.533486
vt 0.117493 0.552131
vt 0.196951 0.542170
vt 0.177945 0.532158
vt 0.194612 0.545167
vt 0.117526 0.552131
vt 0.117526 0.533486
vt 0.121779 0.533486
vt 0.121779 0.552131
vt 0.196951 0.499260
vt 0.194612 0.496263
vt 0.177945 0.509271
vt 0.121779 0.484281
vt 0.121779 0.533454
vt 0.117526 0.533454
vt 0.117526 0.484281
s 0
usemtl Material.001
f 1/1/1 2/2/2 3/3/3
f 1/1/4 3/3/3 4/4/5
f 4/4/6 3/3/7 5/5/7
f 4/4/8 5/5/7 6/6/9
f 6/6/10 5/5/11 7/7/11
f 6/6/12 7/7/11 8/8/13
f 8/8/14 7/7/15 9/9/15
f 8/8/16 9/9/15 10/10/17
f 10/10/18 9/9/19 11/11/19
f 10/10/20 11/11/19 12/12/21
f 12/12/22 11/11/23 13/13/23
f 12/12/24 13/13/23 14/14/25
f 14/14/26 13/13/27 15/15/27
f 14/14/28 15/15/27 16/16/29
f 16/16/30 15/15/31 17/17/32
f 16/16/33 17/17/34 18/18/35
f 19/19/36 20/20/36 21/21/36
f 19/19/36 21/21/36 22/22/36
f 23/23/37 24/24/37 25/25/38
f 23/23/37 25/25/39 26/26/40
f 27/27/41 28/28/42 3/29/42
f 27/27/43 3/29/42 2/30/44
f 29/24/45 23/23/45 26/26/46
f 29/24/45 26/26/47 30/25/48
f 28/28/49 31/27/49 5/30/49
f 28/28/49 5/30/49 3/29/49
f 32/31/50 29/24/50 30/25/51
f 32/31/50 30/25/52 33/32/53
f 31/27/54 34/33/54 7/34/54
f 31/27/54 7/34/54 5/30/54
f 35/24/55 32/23/55 33/26/56
f 35/24/55 33/26/57 36/25/58
f 34/28/59 37/27/59 9/30/59
f 34/28/59 9/30/59 7/29/59
f 38/31/60 35/24/60 36/25/61
f 38/31/60 36/25/62 39/32/63
f 37/27/64 40/33/64 11/34/64
f 37/27/64 11/34/64 9/30/64
f 41/24/65 38/31/65 39/32/66
f 41/24/65 39/32/67 42/25/68
f 40/33/69 43/27/69 13/30/69
f 40/33/69 13/30/69 11/34/69
f 44/23/70 41/24/70 42/25/71
f 44/23/70 42/25/72 45/26/73
f 43/27/74 46/28/74 15/29/74
f 43/27/74 15/29/74 13/30/74
f 24/24/75 44/31/75 45/32/76
f 24/24/75 45/32/77 25/25/78
f 46/33/79 47/27/80 17/30/81
f 46/33/79 17/30/82 15/34/79
f 48/35/83 20/20/83 49/36/83
f 48/35/83 49/36/83 50/37/83
f 51/38/83 48/35/83 50/37/83
f 51/38/83 50/37/83 52/39/83
f 53/40/83 51/38/83 52/39/83
f 53/40/83 52/39/83 54/41/83
f 55/42/83 53/40/83 54/41/83
f 55/42/83 54/41/83 56/43/83
f 57/44/83 55/42/83 56/43/83
f 57/44/83 56/43/83 58/45/83
f 59/46/83 57/44/83 58/45/83
f 59/46/83 58/45/83 60/47/83
f 19/19/83 59/46/83 60/47/83
f 19/19/83 60/47/83 61/48/83
f 20/20/83 19/19/83 61/48/83
f 20/20/83 61/48/83 49/36/83
f 57/44/84 59/46/84 62/49/84
f 57/44/84 62/49/84 63/50/84
f 53/40/85 55/42/85 64/51/85
f 53/40/85 64/51/85 65/52/85
f 48/35/86 51/38/86 66/53/86
f 48/35/86 66/53/86 67/54/86
f 59/46/87 19/19/87 22/22/87
f 59/46/87 22/22/87 62/49/87
f 55/42/88 57/44/88 63/50/88
f 55/42/88 63/50/88 64/51/88
f 51/38/89 53/40/89 65/52/89
f 51/38/89 65/52/89 66/53/89
f 20/20/90 48/35/90 67/54/90
f 20/20/90 67/54/90 21/21/90
f 68/55/83 69/56/83 70/57/83
f 68/55/83 70/57/83 71/58/83
f 72/59/15 73/60/15 74/61/15
f 72/59/15 74/61/15 75/62/15
f 76/63/83 77/64/83 78/65/83
f 76/63/83 78/65/83 79/66/83
f 80/67/91 81/68/91 82/69/91
f 80/67/91 82/69/91 83/70/91
f 77/64/83 84/71/83 85/72/83
f 77/64/83 85/72/83 78/65/83
f 86/73/91 80/67/91 83/70/91
f 86/73/91 83/70/91 87/74/91
f 69/56/83 88/75/83 89/76/83
f 69/56/83 89/76/83 70/57/83
f 90/77/91 86/73/91 87/74/91
f 90/77/91 87/74/91 91/78/91
f 84/71/83 92/79/83 93/80/83
f 84/71/83 93/80/83 85/72/83
f 94/81/11 95/82/11 96/83/11
f 94/84/11 96/85/11 97/86/11
f 95/82/7 98/87/7 99/88/7
f 95/82/7 99/88/7 96/83/7
f 98/89/3 100/90/3 101/91/3
f 98/89/3 101/91/3 99/92/3
f 100/90/31 102/93/31 103/94/31
f 100/90/31 103/94/31 101/91/31
f 102/95/27 104/96/27 105/97/27
f 102/95/27 105/97/27 103/98/27
f 104/96/23 106/99/23 107/100/23
f 104/96/23 107/100/23 105/97/23
f 106/101/19 108/102/19 109/103/19
f 106/101/19 109/103/19 107/104/19
f 108/105/15 94/84/15 97/86/15
f 108/105/15 97/86/15 109/106/15
f 81/68/91 110/107/91 111/108/91
f 81/68/91 111/108/91 82/69/91
f 110/107/91 112/109/91 113/110/91
f 110/107/91 113/110/91 111/108/91
f 114/111/83 76/63/83 79/66/83
f 114/111/83 79/66/83 115/112/83
f 112/109/91 116/113/91 117/114/91
f 112/109/91 117/114/91 113/110/91
f 92/79/83 68/55/83 71/58/83
f 92/79/83 71/58/83 93/80/83
f 116/113/91 118/115/91 119/116/91
f 116/113/91 119/116/91 117/114/91
f 88/75/83 114/111/83 115/112/83
f 88/75/83 115/112/83 89/76/83
f 118/115/91 90/77/91 91/78/91
f 118/115/91 91/78/91 119/116/91
f 120/117/7 121/118/7 122/119/7
f 120/117/7 122/119/7 123/120/7
f 124/121/31 125/122/31 126/123/31
f 124/121/31 126/123/31 127/124/31
f 128/125/23 129/126/23 130/127/23
f 128/125/23 130/127/23 131/128/23
f 73/60/11 120/117/11 123/120/11
f 73/60/11 123/120/11 74/61/11
f 121/118/3 124/121/3 127/124/3
f 121/118/3 127/124/3 122/119/3
f 125/122/27 128/125/27 131/128/27
f 125/122/27 131/128/27 126/123/27
f 129/126/19 72/59/19 75/62/19
f 129/126/19 75/62/19 130/127/19
f 132/129/91 133/130/91 134/131/91
f 132/129/91 134/131/91 135/132/91
f 133/130/91 136/133/91 137/134/91
f 133/130/91 137/134/91 134/131/91
f 136/133/91 138/135/91 139/136/91
f 136/133/91 139/136/91 137/134/91
f 138/135/91 140/137/91 141/138/91
f 138/135/91 141/138/91 139/136/91
f 140/137/91 142/139/91 143/140/91
f 140/137/91 143/140/91 141/138/91
f 142/139/91 144/141/91 145/142/91
f 142/139/91 145/142/91 143/140/91
f 144/141/91 146/143/91 147/144/91
f 144/141/91 147/144/91 145/142/91
f 146/143/91 132/129/91 135/132/91
f 146/143/91 135/132/91 147/144/91
f 148/145/92 149/146/92 150/147/92
f 148/145/92 150/147/92 151/148/92
f 152/149/92 153/150/92 154/151/92
f 152/149/92 154/151/92 155/152/92
f 153/150/92 148/145/92 151/148/92
f 153/150/92 151/148/92 154/151/92
f 156/153/93 157/154/94 158/155/94
f 156/153/95 158/155/94 159/156/96
f 160/157/97 161/158/98 162/159/99
f 160/157/100 162/159/101 163/160/102
f 164/161/103 165/162/103 166/163/103
f 164/161/103 166/163/103 167/164/103
f 168/165/104 160/166/105 169/167/106
f 168/165/104 169/167/107 170/168/104
f 171/169/108 172/161/109 173/170/109
f 171/169/110 173/170/109 174/171/111
f 161/172/112 175/173/113 176/174/113
f 161/172/114 176/174/113 177/175/115
f 178/162/116 156/176/96 179/177/117
f 178/162/116 179/177/118 180/178/116
f 181/179/119 171/180/120 182/181/121
f 181/179/119 182/181/122 183/182/119
f 67/54/83 22/22/83 21/21/83
f 22/22/83 67/54/83 66/53/83
f 22/22/83 66/53/83 62/49/83
f 62/49/83 66/53/83 65/52/83
f 62/49/83 65/52/83 63/50/83
f 63/50/83 65/52/83 64/51/83
